<svg width="48" height="48" viewBox="0 0 48 48" fill="none" xmlns="http://www.w3.org/2000/svg">
  <defs>
    <linearGradient id="bg" x1="6" y1="4" x2="42" y2="44">
      <stop offset="0%" stop-color="#2d8f89"/>
      <stop offset="55%" stop-color="#36a69f"/>
      <stop offset="100%" stop-color="#3ab7b1"/>
    </linearGradient>
    <linearGradient id="drop" x1="24" y1="14" x2="24" y2="34">
      <stop offset="0%" stop-color="#ffffff"/>
      <stop offset="100%" stop-color="#e6fffa"/>
    </linearGradient>
  </defs>
  <rect width="48" height="48" rx="11" fill="url(#bg)"/>
  <path d="M24 9 A15 15 0 0 1 37.5 18" stroke="rgba(255,255,255,0.55)" stroke-width="2" stroke-linecap="round" fill="none"/>
  <path d="M37.5 30 A15 15 0 0 1 24 39" stroke="rgba(255,255,255,0.55)" stroke-width="2" stroke-linecap="round" fill="none"/>
  <path d="M10.5 30 A15 15 0 0 1 10.5 18" stroke="rgba(255,255,255,0.55)" stroke-width="2" stroke-linecap="round" fill="none"/>
  <circle cx="24" cy="9" r="3.25" fill="white"/>
  <rect x="22.6" y="7.4" width="2.8" height="3.2" rx="0.4" fill="#2d8f89"/>
  <line x1="22.8" y1="8.3" x2="25.2" y2="8.3" stroke="white" stroke-width="0.45"/>
  <line x1="22.8" y1="9.2" x2="24.8" y2="9.2" stroke="white" stroke-width="0.45"/>
  <circle cx="37.5" cy="18" r="3.25" fill="white"/>
  <path d="M35.2 17.2 L37.8 16.2 L37.8 19.8 L35.2 18.8 Z" fill="#36a69f"/>
  <path d="M37.9 16.8 C39.2 17.4 39.2 18.6 37.9 19.2" stroke="#36a69f" stroke-width="0.7" fill="none"/>
  <circle cx="10.5" cy="30" r="3.25" fill="white"/>
  <path d="M9.2 30.2 L10.4 31.5 L12 28.8" stroke="#2d8f89" stroke-width="1.1" stroke-linecap="round" stroke-linejoin="round" fill="none"/>
  <path d="M24 15.5 C24 15.5 18.5 23 18.5 27.2 C18.5 30.4 20.9 33 24 33 C27.1 33 29.5 30.4 29.5 27.2 C29.5 23 24 15.5 24 15.5 Z" fill="url(#drop)"/>
  <path d="M22 27.5 L24 24.5 L26 27.5" stroke="#36a69f" stroke-width="1.4" stroke-linecap="round" stroke-linejoin="round" fill="none"/>
  <line x1="24" y1="24.5" x2="24" y2="29" stroke="#36a69f" stroke-width="1.4" stroke-linecap="round"/>
</svg>
